<?xml version="1.0" encoding="UTF-8" standalone="no"?>
<!-- Created with Inkscape (http://www.inkscape.org/) -->

<svg
   xmlns:dc="http://purl.org/dc/elements/1.1/"
   xmlns:cc="http://creativecommons.org/ns#"
   xmlns:rdf="http://www.w3.org/1999/02/22-rdf-syntax-ns#"
   xmlns:svg="http://www.w3.org/2000/svg"
   xmlns="http://www.w3.org/2000/svg"
   xmlns:sodipodi="http://sodipodi.sourceforge.net/DTD/sodipodi-0.dtd"
   xmlns:inkscape="http://www.inkscape.org/namespaces/inkscape"
   width="244.37198mm"
   height="59.597916mm"
   viewBox="0 0 244.37198 59.597916"
   version="1.1"
   id="svg8"
   inkscape:version="0.92.1 r15371"
   sodipodi:docname="astronaut1.svg">
  <defs
     id="defs2" />
  <sodipodi:namedview
     id="base"
     pagecolor="#ffffff"
     bordercolor="#666666"
     borderopacity="1.0"
     inkscape:pageopacity="0.0"
     inkscape:pageshadow="2"
     inkscape:zoom="1"
     inkscape:cx="390.58521"
     inkscape:cy="201.82628"
     inkscape:document-units="px"
     inkscape:current-layer="layer4"
     showgrid="false"
     showborder="false"
     inkscape:window-width="1920"
     inkscape:window-height="1017"
     inkscape:window-x="-8"
     inkscape:window-y="-8"
     inkscape:window-maximized="1"
     fit-margin-top="0"
     fit-margin-left="0"
     fit-margin-right="0"
     fit-margin-bottom="0" />
  <metadata
     id="metadata5">
    <rdf:RDF>
      <cc:Work
         rdf:about="">
        <dc:format>image/svg+xml</dc:format>
        <dc:type
           rdf:resource="http://purl.org/dc/dcmitype/StillImage" />
        <dc:title></dc:title>
      </cc:Work>
    </rdf:RDF>
  </metadata>
  <g
     inkscape:groupmode="layer"
     id="layer5"
     inkscape:label="bottom"
     transform="translate(317.33353,-92.6902)" />
  <g
     inkscape:label="Ebene 1"
     inkscape:groupmode="layer"
     id="layer1"
     transform="translate(317.33353,-92.6902)">
    <a
       id="a4526" />
  </g>
  <g
     inkscape:groupmode="layer"
     id="layer2"
     inkscape:label="Ebene 2"
     transform="translate(317.33353,-92.6902)" />
  <g
     inkscape:groupmode="layer"
     id="layer3"
     inkscape:label="Ebene 3"
     transform="translate(317.33353,-92.6902)" />
  <g
     inkscape:groupmode="layer"
     id="layer4"
     inkscape:label="Ebene 4"
     transform="translate(317.33353,-92.6902)">
    <g
       id="g4581"
       inkscape:export-xdpi="96"
       inkscape:export-ydpi="96">
      <path
         sodipodi:nodetypes="ccc"
         inkscape:connector-curvature="0"
         id="path4535"
         d="m -293.91631,125.2526 c -33.1886,-3.14303 -25.88859,28.27826 -9.00457,12.05392 l 8.81749,-1.38986"
         style="fill:#ffffff;fill-opacity:1;stroke:#000000;stroke-width:0.26458332px;stroke-linecap:butt;stroke-linejoin:miter;stroke-opacity:1" />
      <path
         sodipodi:nodetypes="sssssssss"
         inkscape:connector-curvature="0"
         id="rect4545"
         d="m -203.12343,92.799782 h 62.81084 c 1.90454,0 3.4378,1.809031 3.4378,4.056123 v 17.297265 c 0,2.24709 -1.53331,5.03433 -3.4378,5.04831 l -63.07542,0.46302 c -1.90449,0.014 -3.17322,-3.26424 -3.17322,-5.51133 V 96.855905 c 0,-2.247092 1.53326,-4.056123 3.4378,-4.056123 z"
         style="opacity:1;fill:#585858;fill-opacity:1;stroke:#000000;stroke-width:0.21916492;stroke-linecap:butt;stroke-linejoin:round;stroke-miterlimit:4;stroke-dasharray:none;stroke-opacity:1;paint-order:normal" />
      <path
         sodipodi:nodetypes="ccc"
         inkscape:connector-curvature="0"
         id="path4550"
         d="m -206.56928,97.937655 c -16.96201,-1.589201 -22.20354,3.658555 -30.84624,6.922285 8.16387,6.55093 18.97979,7.88617 30.86963,7.10937"
         style="fill:#c76252;fill-opacity:0.70967742;stroke:none;stroke-width:0.26458332px;stroke-linecap:butt;stroke-linejoin:miter;stroke-opacity:1" />
      <path
         style="opacity:1;fill:#aeaeae;fill-opacity:1;stroke:#000000;stroke-width:0.26458332;stroke-linecap:butt;stroke-linejoin:round;stroke-miterlimit:4;stroke-dasharray:none;stroke-opacity:1;paint-order:normal"
         d="m -101.41067,151.05903 a 23.680208,23.680208 0 0 1 -18.84645,-27.55572 23.680208,23.680208 0 0 1 27.437572,-19.01803 23.680208,23.680208 0 0 1 19.188888,27.31835 23.680208,23.680208 0 0 1 -27.19808,19.35899"
         id="path4485"
         inkscape:connector-curvature="0" />
      <path
         sodipodi:nodetypes="cccc"
         inkscape:connector-curvature="0"
         id="path4487"
         d="m -99.266897,128.07019 6.392712,-23.59633 c 36.020078,8.73594 16.536993,55.37708 -8.536485,46.58517 z"
         inkscape:transform-center-y="-3.1816136"
         inkscape:transform-center-x="-4.8080361"
         style="opacity:1;fill:#9649e7;fill-opacity:1;stroke:#000000;stroke-width:0.26458332;stroke-linecap:butt;stroke-linejoin:round;stroke-miterlimit:4;stroke-dasharray:none;stroke-opacity:1;paint-order:normal" />
      <path
         style="opacity:1;fill:#bb49e7;fill-opacity:0.70322577;stroke:none;stroke-width:0.72977507;stroke-linecap:butt;stroke-linejoin:round;stroke-miterlimit:4;stroke-dasharray:none;stroke-opacity:1;paint-order:normal"
         inkscape:transform-center-x="-4.4205249"
         inkscape:transform-center-y="-2.9251768"
         d="m -99.266897,128.07019 5.869395,-21.64298 c 27.909861,2.81996 21.63739,49.40442 -7.842478,42.58032 z"
         id="path4490"
         inkscape:connector-curvature="0"
         sodipodi:nodetypes="cccc" />
      <path
         transform="rotate(72.308017)"
         style="opacity:1;fill:#f5e6fb;fill-opacity:0.59316771;stroke:none;stroke-width:0.42010784;stroke-linecap:butt;stroke-linejoin:round;stroke-miterlimit:4;stroke-dasharray:none;stroke-opacity:1;paint-order:normal"
         inkscape:transform-center-x="-0.056455282"
         inkscape:transform-center-y="-0.18659479"
         d="m 85.132572,111.9846 h 6.135849 c 1.481147,0 2.67355,0.64017 2.67355,1.43536 0,0.7952 -1.192403,1.43537 -2.67355,1.43537 h -6.135849 c -1.481146,0 -2.673549,-0.64017 -2.673549,-1.43537 0,-0.79519 1.192403,-1.43536 2.673549,-1.43536 z"
         id="rect4496"
         inkscape:connector-curvature="0" />
      <path
         style="opacity:1;fill:#6b5f81;fill-opacity:1;stroke:#000000;stroke-width:0.13255624;stroke-linecap:butt;stroke-linejoin:round;stroke-miterlimit:4;stroke-dasharray:none;stroke-opacity:1;paint-order:normal"
         d="m -99.016864,133.39156 a 5.238483,5.238483 0 0 1 -4.169166,-6.09582 5.238483,5.238483 0 0 1 6.069675,-4.20712 5.238483,5.238483 0 0 1 4.244923,6.0433 5.238483,5.238483 0 0 1 -6.016698,4.28256"
         id="path4505"
         inkscape:connector-curvature="0" />
      <path
         sodipodi:nodetypes="cccc"
         inkscape:connector-curvature="0"
         id="path4515"
         d="m -211.78437,120.01412 c -6.18857,-3.03081 -63.50816,6.3376 -82.13194,5.23848 -1.16283,3.22455 -1.51179,6.69325 -0.18708,10.66406 27.24092,0.99017 51.07699,6.2546 82.31902,6.5481"
         style="fill:#aeaeae;fill-opacity:1;stroke:#000000;stroke-width:0.26458332px;stroke-linecap:butt;stroke-linejoin:miter;stroke-opacity:1" />
      <path
         sodipodi:nodetypes="cc"
         inkscape:connector-curvature="0"
         id="path4537"
         d="m -316.90961,133.8882 c 1.91118,-0.13882 3.80251,-0.1973 5.2822,1.41105"
         style="fill:none;stroke:#000000;stroke-width:0.22144094px;stroke-linecap:butt;stroke-linejoin:miter;stroke-opacity:1" />
      <path
         sodipodi:nodetypes="cc"
         inkscape:connector-curvature="0"
         id="path4539"
         d="m -315.24921,130.96128 c 2.85695,-0.28151 3.56699,0.7644 4.67558,1.56389"
         style="fill:none;stroke:#000000;stroke-width:0.20877989px;stroke-linecap:butt;stroke-linejoin:miter;stroke-opacity:1" />
      <path
         sodipodi:nodetypes="cc"
         inkscape:connector-curvature="0"
         id="path4541"
         d="m -312.40382,128.34707 c 1.75845,0.509 2.70915,0.76561 2.88085,1.77511"
         style="fill:none;stroke:#000000;stroke-width:0.18433395px;stroke-linecap:butt;stroke-linejoin:miter;stroke-opacity:1" />
      <path
         style="fill:#aeaeae;fill-opacity:1;stroke:#000000;stroke-width:0.26458332px;stroke-linecap:butt;stroke-linejoin:miter;stroke-opacity:1"
         d="m -119.3158,120.01412 c -3.15435,8.51137 -0.42849,14.12983 1.26933,18.63883 -2.665,-0.0815 -4.50268,-0.91627 -5.80623,-1.98794 -2.21216,10.78171 -55.222,4.35311 -87.93167,5.79975 -3.17455,-12.88028 -1.71935,-17.89 0,-22.45064 29.28952,-0.80062 59.51616,-4.07181 86.24787,1.87089 1.8829,-1.13208 3.96365,-1.73654 6.2207,-1.87089 z"
         id="path4507"
         inkscape:connector-curvature="0"
         sodipodi:nodetypes="ccccccc" />
      <path
         sodipodi:nodetypes="ccc"
         inkscape:connector-curvature="0"
         id="path4511"
         d="m -191.01753,126.28159 c -5.16604,0.17978 -11.78046,0.75548 -12.45389,2.79028 -0.94941,4.87189 9.51997,1.94581 12.73452,2.72884"
         style="fill:#ffffff;fill-opacity:1;stroke:#000000;stroke-width:0.26458332px;stroke-linecap:butt;stroke-linejoin:miter;stroke-opacity:1" />
      <path
         sodipodi:nodetypes="cccc"
         inkscape:connector-curvature="0"
         id="path4509"
         d="m -130.49435,125.72032 c -28.69487,-1.3779 -43.50464,-0.20547 -60.52318,0.56127 -1.14085,3.3827 -0.54628,4.59612 0.28063,5.51912 19.82872,1.4789 39.76782,2.40598 60.3361,0.18708"
         style="fill:#aeaeae;fill-opacity:1;stroke:#000000;stroke-width:0.26458332px;stroke-linecap:butt;stroke-linejoin:miter;stroke-opacity:1" />
    </g>
  </g>
</svg>
