<?xml version="1.0" encoding="UTF-8" standalone="no"?>
<!-- Created with Inkscape (http://www.inkscape.org/) -->

<svg
   xmlns:dc="http://purl.org/dc/elements/1.1/"
   xmlns:cc="http://creativecommons.org/ns#"
   xmlns:rdf="http://www.w3.org/1999/02/22-rdf-syntax-ns#"
   xmlns:svg="http://www.w3.org/2000/svg"
   xmlns="http://www.w3.org/2000/svg"
   xmlns:xlink="http://www.w3.org/1999/xlink"
   xmlns:sodipodi="http://sodipodi.sourceforge.net/DTD/sodipodi-0.dtd"
   xmlns:inkscape="http://www.inkscape.org/namespaces/inkscape"
   width="331.25903mm"
   height="26.624979mm"
   viewBox="0 0 331.25903 26.624979"
   version="1.1"
   id="svg8"
   inkscape:version="0.92.1 r15371"
   sodipodi:docname="moon-surface.svg">
  <defs
     id="defs2">
    <linearGradient
       inkscape:collect="always"
       id="linearGradient5183">
      <stop
         style="stop-color:#789ab5;stop-opacity:1;"
         offset="0"
         id="stop5179" />
      <stop
         style="stop-color:#789ab5;stop-opacity:0;"
         offset="1"
         id="stop5181" />
    </linearGradient>
    <linearGradient
       inkscape:collect="always"
       xlink:href="#linearGradient5183"
       id="linearGradient5185"
       x1="-80.207771"
       y1="120.9251"
       x2="-78.542076"
       y2="233.6376"
       gradientUnits="userSpaceOnUse" />
  </defs>
  <sodipodi:namedview
     id="base"
     pagecolor="#ffffff"
     bordercolor="#666666"
     borderopacity="1.0"
     inkscape:pageopacity="0.0"
     inkscape:pageshadow="2"
     inkscape:zoom="1"
     inkscape:cx="642.00987"
     inkscape:cy="1.4692934"
     inkscape:document-units="mm"
     inkscape:current-layer="layer1"
     showgrid="false"
     showborder="false"
     inkscape:window-width="1920"
     inkscape:window-height="1017"
     inkscape:window-x="-8"
     inkscape:window-y="-8"
     inkscape:window-maximized="1"
     fit-margin-top="0"
     fit-margin-left="0"
     fit-margin-right="0"
     fit-margin-bottom="0" />
  <metadata
     id="metadata5">
    <rdf:RDF>
      <cc:Work
         rdf:about="">
        <dc:format>image/svg+xml</dc:format>
        <dc:type
           rdf:resource="http://purl.org/dc/dcmitype/StillImage" />
        <dc:title></dc:title>
      </cc:Work>
    </rdf:RDF>
  </metadata>
  <g
     inkscape:label="Ebene 1"
     inkscape:groupmode="layer"
     id="layer1"
     transform="translate(248.40528,-165.18396)">
    <g
       id="g5365">
      <path
         sodipodi:nodetypes="cc"
         inkscape:connector-curvature="0"
         id="path5169"
         d="m -248.36625,191.68254 c 96.61219,-29.82916 202.936736,-40.01233 331.180832,-0.25129"
         style="fill:url(#linearGradient5185);fill-opacity:1;stroke:#000000;stroke-width:0.26458332px;stroke-linecap:butt;stroke-linejoin:miter;stroke-opacity:1" />
      <g
         transform="rotate(-11.124794,-464.69273,133.57219)"
         id="use5204">
        <path
           sodipodi:nodetypes="cccc"
           inkscape:connector-curvature="0"
           id="path5220"
           d="m -226.21875,238.52708 c 1.97393,-1.59474 3.68213,-2.42129 5.55625,-6.35 4.21162,1.70606 21.49517,4.25846 32.54375,-0.26458 0.86473,1.84576 0.50562,1.78908 4.23333,5.55625"
           style="fill:none;stroke:#000000;stroke-width:0.26458332px;stroke-linecap:butt;stroke-linejoin:miter;stroke-opacity:1" />
        <path
           sodipodi:nodetypes="cc"
           inkscape:connector-curvature="0"
           id="path5222"
           d="m -220.6625,232.17708 c 0.47768,-1.97949 31.57847,-2.05493 32.54375,-0.26458"
           style="fill:none;stroke:#000000;stroke-width:0.26458332px;stroke-linecap:butt;stroke-linejoin:miter;stroke-opacity:1" />
        <path
           sodipodi:nodetypes="cc"
           inkscape:connector-curvature="0"
           id="path5224"
           d="m -218.75342,237.41225 c 0.65723,-0.51 1.28284,-0.67208 2.05797,-2.47892"
           style="fill:none;stroke:#000000;stroke-width:0.26458332px;stroke-linecap:butt;stroke-linejoin:miter;stroke-opacity:1" />
        <path
           sodipodi:nodetypes="cc"
           inkscape:connector-curvature="0"
           id="path5226"
           d="m -188.16443,237.31871 c -1.18583,-0.73362 -1.09632,-1.58968 -2.42688,-3.53061"
           style="fill:none;stroke:#000000;stroke-width:0.26458332px;stroke-linecap:butt;stroke-linejoin:miter;stroke-opacity:1" />
        <path
           sodipodi:nodetypes="cc"
           inkscape:connector-curvature="0"
           id="path5228"
           d="m -201.49449,237.69289 c -0.41352,-0.24057 -0.56734,-1.26021 -0.60804,-2.61924"
           style="fill:none;stroke:#000000;stroke-width:0.26458332px;stroke-linecap:butt;stroke-linejoin:miter;stroke-opacity:1" />
      </g>
      <g
         transform="matrix(0.89159951,0.11534061,-0.11534061,0.89159951,173.2529,-13.220484)"
         id="use5206">
        <path
           sodipodi:nodetypes="cccc"
           inkscape:connector-curvature="0"
           id="path5232"
           d="m -226.21875,238.52708 c 1.97393,-1.59474 3.68213,-2.42129 5.55625,-6.35 4.21162,1.70606 21.49517,4.25846 32.54375,-0.26458 0.86473,1.84576 0.50562,1.78908 4.23333,5.55625"
           style="fill:none;stroke:#000000;stroke-width:0.26458332px;stroke-linecap:butt;stroke-linejoin:miter;stroke-opacity:1" />
        <path
           sodipodi:nodetypes="cc"
           inkscape:connector-curvature="0"
           id="path5234"
           d="m -220.6625,232.17708 c 0.47768,-1.97949 31.57847,-2.05493 32.54375,-0.26458"
           style="fill:none;stroke:#000000;stroke-width:0.26458332px;stroke-linecap:butt;stroke-linejoin:miter;stroke-opacity:1" />
        <path
           sodipodi:nodetypes="cc"
           inkscape:connector-curvature="0"
           id="path5236"
           d="m -218.75342,237.41225 c 0.65723,-0.51 1.28284,-0.67208 2.05797,-2.47892"
           style="fill:none;stroke:#000000;stroke-width:0.26458332px;stroke-linecap:butt;stroke-linejoin:miter;stroke-opacity:1" />
        <path
           sodipodi:nodetypes="cc"
           inkscape:connector-curvature="0"
           id="path5238"
           d="m -188.16443,237.31871 c -1.18583,-0.73362 -1.09632,-1.58968 -2.42688,-3.53061"
           style="fill:none;stroke:#000000;stroke-width:0.26458332px;stroke-linecap:butt;stroke-linejoin:miter;stroke-opacity:1" />
        <path
           sodipodi:nodetypes="cc"
           inkscape:connector-curvature="0"
           id="path5240"
           d="m -201.49449,237.69289 c -0.41352,-0.24057 -0.56734,-1.26021 -0.60804,-2.61924"
           style="fill:none;stroke:#000000;stroke-width:0.26458332px;stroke-linecap:butt;stroke-linejoin:miter;stroke-opacity:1" />
      </g>
      <g
         transform="matrix(0.5807183,0.05147489,-0.05147489,0.5807183,121.14512,59.0625)"
         id="use5208">
        <path
           sodipodi:nodetypes="cccc"
           inkscape:connector-curvature="0"
           id="path5244"
           d="m -226.21875,238.52708 c 1.97393,-1.59474 3.68213,-2.42129 5.55625,-6.35 4.21162,1.70606 21.49517,4.25846 32.54375,-0.26458 0.86473,1.84576 0.50562,1.78908 4.23333,5.55625"
           style="fill:none;stroke:#000000;stroke-width:0.26458332px;stroke-linecap:butt;stroke-linejoin:miter;stroke-opacity:1" />
        <path
           sodipodi:nodetypes="cc"
           inkscape:connector-curvature="0"
           id="path5246"
           d="m -220.6625,232.17708 c 0.47768,-1.97949 31.57847,-2.05493 32.54375,-0.26458"
           style="fill:none;stroke:#000000;stroke-width:0.26458332px;stroke-linecap:butt;stroke-linejoin:miter;stroke-opacity:1" />
        <path
           sodipodi:nodetypes="cc"
           inkscape:connector-curvature="0"
           id="path5248"
           d="m -218.75342,237.41225 c 0.65723,-0.51 1.28284,-0.67208 2.05797,-2.47892"
           style="fill:none;stroke:#000000;stroke-width:0.26458332px;stroke-linecap:butt;stroke-linejoin:miter;stroke-opacity:1" />
        <path
           sodipodi:nodetypes="cc"
           inkscape:connector-curvature="0"
           id="path5250"
           d="m -188.16443,237.31871 c -1.18583,-0.73362 -1.09632,-1.58968 -2.42688,-3.53061"
           style="fill:none;stroke:#000000;stroke-width:0.26458332px;stroke-linecap:butt;stroke-linejoin:miter;stroke-opacity:1" />
        <path
           sodipodi:nodetypes="cc"
           inkscape:connector-curvature="0"
           id="path5252"
           d="m -201.49449,237.69289 c -0.41352,-0.24057 -0.56734,-1.26021 -0.60804,-2.61924"
           style="fill:none;stroke:#000000;stroke-width:0.26458332px;stroke-linecap:butt;stroke-linejoin:miter;stroke-opacity:1" />
      </g>
      <g
         transform="matrix(0.84389902,0.18795518,-0.18795518,0.84389902,251.39404,24.025732)"
         id="use5210">
        <path
           sodipodi:nodetypes="cccc"
           inkscape:connector-curvature="0"
           id="path5256"
           d="m -226.21875,238.52708 c 1.97393,-1.59474 3.68213,-2.42129 5.55625,-6.35 4.21162,1.70606 21.49517,4.25846 32.54375,-0.26458 0.86473,1.84576 0.50562,1.78908 4.23333,5.55625"
           style="fill:none;stroke:#000000;stroke-width:0.26458332px;stroke-linecap:butt;stroke-linejoin:miter;stroke-opacity:1" />
        <path
           sodipodi:nodetypes="cc"
           inkscape:connector-curvature="0"
           id="path5258"
           d="m -220.6625,232.17708 c 0.47768,-1.97949 31.57847,-2.05493 32.54375,-0.26458"
           style="fill:none;stroke:#000000;stroke-width:0.26458332px;stroke-linecap:butt;stroke-linejoin:miter;stroke-opacity:1" />
        <path
           sodipodi:nodetypes="cc"
           inkscape:connector-curvature="0"
           id="path5260"
           d="m -218.75342,237.41225 c 0.65723,-0.51 1.28284,-0.67208 2.05797,-2.47892"
           style="fill:none;stroke:#000000;stroke-width:0.26458332px;stroke-linecap:butt;stroke-linejoin:miter;stroke-opacity:1" />
        <path
           sodipodi:nodetypes="cc"
           inkscape:connector-curvature="0"
           id="path5262"
           d="m -188.16443,237.31871 c -1.18583,-0.73362 -1.09632,-1.58968 -2.42688,-3.53061"
           style="fill:none;stroke:#000000;stroke-width:0.26458332px;stroke-linecap:butt;stroke-linejoin:miter;stroke-opacity:1" />
        <path
           sodipodi:nodetypes="cc"
           inkscape:connector-curvature="0"
           id="path5264"
           d="m -201.49449,237.69289 c -0.41352,-0.24057 -0.56734,-1.26021 -0.60804,-2.61924"
           style="fill:none;stroke:#000000;stroke-width:0.26458332px;stroke-linecap:butt;stroke-linejoin:miter;stroke-opacity:1" />
      </g>
      <g
         transform="matrix(1.1549368,-0.03910857,0.03910857,1.1549368,90.464859,-93.742106)"
         id="use5212">
        <path
           sodipodi:nodetypes="cccc"
           inkscape:connector-curvature="0"
           id="path5268"
           d="m -226.21875,238.52708 c 1.97393,-1.59474 3.68213,-2.42129 5.55625,-6.35 4.21162,1.70606 21.49517,4.25846 32.54375,-0.26458 0.86473,1.84576 0.50562,1.78908 4.23333,5.55625"
           style="fill:none;stroke:#000000;stroke-width:0.26458332px;stroke-linecap:butt;stroke-linejoin:miter;stroke-opacity:1" />
        <path
           sodipodi:nodetypes="cc"
           inkscape:connector-curvature="0"
           id="path5270"
           d="m -220.6625,232.17708 c 0.47768,-1.97949 31.57847,-2.05493 32.54375,-0.26458"
           style="fill:none;stroke:#000000;stroke-width:0.26458332px;stroke-linecap:butt;stroke-linejoin:miter;stroke-opacity:1" />
        <path
           sodipodi:nodetypes="cc"
           inkscape:connector-curvature="0"
           id="path5272"
           d="m -218.75342,237.41225 c 0.65723,-0.51 1.28284,-0.67208 2.05797,-2.47892"
           style="fill:none;stroke:#000000;stroke-width:0.26458332px;stroke-linecap:butt;stroke-linejoin:miter;stroke-opacity:1" />
        <path
           sodipodi:nodetypes="cc"
           inkscape:connector-curvature="0"
           id="path5274"
           d="m -188.16443,237.31871 c -1.18583,-0.73362 -1.09632,-1.58968 -2.42688,-3.53061"
           style="fill:none;stroke:#000000;stroke-width:0.26458332px;stroke-linecap:butt;stroke-linejoin:miter;stroke-opacity:1" />
        <path
           sodipodi:nodetypes="cc"
           inkscape:connector-curvature="0"
           id="path5276"
           d="m -201.49449,237.69289 c -0.41352,-0.24057 -0.56734,-1.26021 -0.60804,-2.61924"
           style="fill:none;stroke:#000000;stroke-width:0.26458332px;stroke-linecap:butt;stroke-linejoin:miter;stroke-opacity:1" />
      </g>
      <g
         transform="matrix(0.4795543,0,0,0.4795543,19.469343,74.747952)"
         id="use5214">
        <path
           sodipodi:nodetypes="cccc"
           inkscape:connector-curvature="0"
           id="path5280"
           d="m -226.21875,238.52708 c 1.97393,-1.59474 3.68213,-2.42129 5.55625,-6.35 4.21162,1.70606 21.49517,4.25846 32.54375,-0.26458 0.86473,1.84576 0.50562,1.78908 4.23333,5.55625"
           style="fill:none;stroke:#000000;stroke-width:0.26458332px;stroke-linecap:butt;stroke-linejoin:miter;stroke-opacity:1" />
        <path
           sodipodi:nodetypes="cc"
           inkscape:connector-curvature="0"
           id="path5282"
           d="m -220.6625,232.17708 c 0.47768,-1.97949 31.57847,-2.05493 32.54375,-0.26458"
           style="fill:none;stroke:#000000;stroke-width:0.26458332px;stroke-linecap:butt;stroke-linejoin:miter;stroke-opacity:1" />
        <path
           sodipodi:nodetypes="cc"
           inkscape:connector-curvature="0"
           id="path5284"
           d="m -218.75342,237.41225 c 0.65723,-0.51 1.28284,-0.67208 2.05797,-2.47892"
           style="fill:none;stroke:#000000;stroke-width:0.26458332px;stroke-linecap:butt;stroke-linejoin:miter;stroke-opacity:1" />
        <path
           sodipodi:nodetypes="cc"
           inkscape:connector-curvature="0"
           id="path5286"
           d="m -188.16443,237.31871 c -1.18583,-0.73362 -1.09632,-1.58968 -2.42688,-3.53061"
           style="fill:none;stroke:#000000;stroke-width:0.26458332px;stroke-linecap:butt;stroke-linejoin:miter;stroke-opacity:1" />
        <path
           sodipodi:nodetypes="cc"
           inkscape:connector-curvature="0"
           id="path5288"
           d="m -201.49449,237.69289 c -0.41352,-0.24057 -0.56734,-1.26021 -0.60804,-2.61924"
           style="fill:none;stroke:#000000;stroke-width:0.26458332px;stroke-linecap:butt;stroke-linejoin:miter;stroke-opacity:1" />
      </g>
      <g
         transform="matrix(0.36806965,-0.03021179,0.03021179,0.36806965,-61.01644,78.901781)"
         id="use5216">
        <path
           sodipodi:nodetypes="cccc"
           inkscape:connector-curvature="0"
           id="path5292"
           d="m -226.21875,238.52708 c 1.97393,-1.59474 3.68213,-2.42129 5.55625,-6.35 4.21162,1.70606 21.49517,4.25846 32.54375,-0.26458 0.86473,1.84576 0.50562,1.78908 4.23333,5.55625"
           style="fill:none;stroke:#000000;stroke-width:0.26458332px;stroke-linecap:butt;stroke-linejoin:miter;stroke-opacity:1" />
        <path
           sodipodi:nodetypes="cc"
           inkscape:connector-curvature="0"
           id="path5294"
           d="m -220.6625,232.17708 c 0.47768,-1.97949 31.57847,-2.05493 32.54375,-0.26458"
           style="fill:none;stroke:#000000;stroke-width:0.26458332px;stroke-linecap:butt;stroke-linejoin:miter;stroke-opacity:1" />
        <path
           sodipodi:nodetypes="cc"
           inkscape:connector-curvature="0"
           id="path5296"
           d="m -218.75342,237.41225 c 0.65723,-0.51 1.28284,-0.67208 2.05797,-2.47892"
           style="fill:none;stroke:#000000;stroke-width:0.26458332px;stroke-linecap:butt;stroke-linejoin:miter;stroke-opacity:1" />
        <path
           sodipodi:nodetypes="cc"
           inkscape:connector-curvature="0"
           id="path5298"
           d="m -188.16443,237.31871 c -1.18583,-0.73362 -1.09632,-1.58968 -2.42688,-3.53061"
           style="fill:none;stroke:#000000;stroke-width:0.26458332px;stroke-linecap:butt;stroke-linejoin:miter;stroke-opacity:1" />
        <path
           sodipodi:nodetypes="cc"
           inkscape:connector-curvature="0"
           id="path5300"
           d="m -201.49449,237.69289 c -0.41352,-0.24057 -0.56734,-1.26021 -0.60804,-2.61924"
           style="fill:none;stroke:#000000;stroke-width:0.26458332px;stroke-linecap:butt;stroke-linejoin:miter;stroke-opacity:1" />
      </g>
      <g
         transform="matrix(0.83723279,-0.01463657,0.01463657,0.83723279,80.919591,-29.059176)"
         id="use5218">
        <path
           sodipodi:nodetypes="cccc"
           inkscape:connector-curvature="0"
           id="path5304"
           d="m -226.21875,238.52708 c 1.97393,-1.59474 3.68213,-2.42129 5.55625,-6.35 4.21162,1.70606 21.49517,4.25846 32.54375,-0.26458 0.86473,1.84576 0.50562,1.78908 4.23333,5.55625"
           style="fill:none;stroke:#000000;stroke-width:0.26458332px;stroke-linecap:butt;stroke-linejoin:miter;stroke-opacity:1" />
        <path
           sodipodi:nodetypes="cc"
           inkscape:connector-curvature="0"
           id="path5306"
           d="m -220.6625,232.17708 c 0.47768,-1.97949 31.57847,-2.05493 32.54375,-0.26458"
           style="fill:none;stroke:#000000;stroke-width:0.26458332px;stroke-linecap:butt;stroke-linejoin:miter;stroke-opacity:1" />
        <path
           sodipodi:nodetypes="cc"
           inkscape:connector-curvature="0"
           id="path5308"
           d="m -218.75342,237.41225 c 0.65723,-0.51 1.28284,-0.67208 2.05797,-2.47892"
           style="fill:none;stroke:#000000;stroke-width:0.26458332px;stroke-linecap:butt;stroke-linejoin:miter;stroke-opacity:1" />
        <path
           sodipodi:nodetypes="cc"
           inkscape:connector-curvature="0"
           id="path5310"
           d="m -188.16443,237.31871 c -1.18583,-0.73362 -1.09632,-1.58968 -2.42688,-3.53061"
           style="fill:none;stroke:#000000;stroke-width:0.26458332px;stroke-linecap:butt;stroke-linejoin:miter;stroke-opacity:1" />
        <path
           sodipodi:nodetypes="cc"
           inkscape:connector-curvature="0"
           id="path5312"
           d="m -201.49449,237.69289 c -0.41352,-0.24057 -0.56734,-1.26021 -0.60804,-2.61924"
           style="fill:none;stroke:#000000;stroke-width:0.26458332px;stroke-linecap:butt;stroke-linejoin:miter;stroke-opacity:1" />
      </g>
    </g>
  </g>
</svg>
